<svg preserveAspectRatio="none" width="100%" height="100%" overflow="visible" style="display: block;" viewBox="0 0 16.6715 16.6715" fill="none" xmlns="http://www.w3.org/2000/svg">
<path id="Vector" d="M15.8333 8.33817C15.6123 8.33817 15.4004 8.42596 15.2441 8.58224C15.0878 8.73852 15 8.95049 15 9.1715V14.1715C15 14.3925 14.9122 14.6045 14.7559 14.7608C14.5996 14.917 14.3877 15.0048 14.1667 15.0048H2.5C2.27899 15.0048 2.06702 14.917 1.91074 14.7608C1.75446 14.6045 1.66667 14.3925 1.66667 14.1715V2.50483C1.66667 2.28382 1.75446 2.07186 1.91074 1.91558C2.06702 1.7593 2.27899 1.6715 2.5 1.6715H7.5C7.72101 1.6715 7.93298 1.5837 8.08926 1.42742C8.24554 1.27114 8.33333 1.05918 8.33333 0.838165C8.33333 0.617152 8.24554 0.40519 8.08926 0.24891C7.93298 0.0926293 7.72101 0.00483195 7.5 0.00483195H2.5C1.83696 0.00483195 1.20107 0.268224 0.732233 0.737065C0.263392 1.20591 0 1.84179 0 2.50483V14.1715C0 14.8345 0.263392 15.4704 0.732233 15.9393C1.20107 16.4081 1.83696 16.6715 2.5 16.6715H14.1667C14.8297 16.6715 15.4656 16.4081 15.9344 15.9393C16.4033 15.4704 16.6667 14.8345 16.6667 14.1715V9.1715C16.6667 8.95049 16.5789 8.73852 16.4226 8.58224C16.2663 8.42596 16.0543 8.33817 15.8333 8.33817ZM3.33333 8.9715V12.5048C3.33333 12.7258 3.42113 12.9378 3.57741 13.0941C3.73369 13.2504 3.94565 13.3382 4.16667 13.3382H7.7C7.80967 13.3388 7.91839 13.3178 8.01992 13.2763C8.12145 13.2348 8.2138 13.1737 8.29167 13.0965L14.0583 7.3215L16.425 5.00483C16.5031 4.92736 16.5651 4.8352 16.6074 4.73365C16.6497 4.6321 16.6715 4.52318 16.6715 4.41317C16.6715 4.30316 16.6497 4.19423 16.6074 4.09268C16.5651 3.99114 16.5031 3.89897 16.425 3.8215L12.8917 0.246499C12.8142 0.168392 12.722 0.106396 12.6205 0.0640891C12.5189 0.0217819 12.41 0 12.3 0C12.19 0 12.0811 0.0217819 11.9795 0.0640891C11.878 0.106396 11.7858 0.168392 11.7083 0.246499L9.35833 2.60483L3.575 8.37983C3.49777 8.4577 3.43666 8.55005 3.39519 8.65158C3.35372 8.75311 3.3327 8.86183 3.33333 8.9715V8.9715ZM12.3 2.01317L14.6583 4.3715L13.475 5.55483L11.1167 3.1965L12.3 2.01317ZM5 9.31317L9.94167 4.3715L12.3 6.72983L7.35833 11.6715H5V9.31317Z" fill="var(--fill-0, #012754)"/>
</svg>
