<svg preserveAspectRatio="none" width="100%" height="100%" overflow="visible" style="display: block;" viewBox="0 0 16.6667 16.6678" fill="none" xmlns="http://www.w3.org/2000/svg">
<path id="Vector" d="M2.91667 12.9173H1.66667V3.75066H8.16667L7.5 4.40899C7.34308 4.56481 7.25448 4.77658 7.2537 4.99771C7.25292 5.21885 7.34002 5.43124 7.49583 5.58816C7.65165 5.74508 7.86342 5.83368 8.08455 5.83446C8.30569 5.83524 8.51808 5.74814 8.675 5.59233L10.7583 3.50899C10.8364 3.43152 10.8984 3.33936 10.9407 3.23781C10.983 3.13626 11.0048 3.02734 11.0048 2.91733C11.0048 2.80732 10.983 2.6984 10.9407 2.59685C10.8984 2.4953 10.8364 2.40313 10.7583 2.32566L8.675 0.242327C8.51886 0.0871181 8.30765 0 8.0875 0C7.86734 0 7.65614 0.0871181 7.5 0.242327C7.42189 0.319796 7.3599 0.411964 7.31759 0.513514C7.27528 0.615063 7.2535 0.723984 7.2535 0.833994C7.2535 0.944004 7.27528 1.05293 7.31759 1.15447C7.3599 1.25602 7.42189 1.34819 7.5 1.42566L8.15833 2.08399H0.833333C0.61232 2.08399 0.400358 2.17179 0.244078 2.32807C0.0877973 2.48435 0 2.69631 0 2.91733V13.7507C0 13.9717 0.0877973 14.1836 0.244078 14.3399C0.400358 14.4962 0.61232 14.584 0.833333 14.584H2.91667C3.13768 14.584 3.34964 14.4962 3.50592 14.3399C3.6622 14.1836 3.75 13.9717 3.75 13.7507C3.75 13.5296 3.6622 13.3177 3.50592 13.1614C3.34964 13.0051 3.13768 12.9173 2.91667 12.9173ZM15.8333 2.08399H13.75C13.529 2.08399 13.317 2.17179 13.1607 2.32807C13.0045 2.48435 12.9167 2.69631 12.9167 2.91733C12.9167 3.13834 13.0045 3.3503 13.1607 3.50658C13.317 3.66286 13.529 3.75066 13.75 3.75066H15V12.9173H8.025L8.68333 12.259C8.76144 12.1815 8.82344 12.0894 8.86574 11.9878C8.90805 11.8863 8.92983 11.7773 8.92983 11.6673C8.92983 11.5573 8.90805 11.4484 8.86574 11.3468C8.82344 11.2453 8.76144 11.1531 8.68333 11.0757C8.5272 10.9205 8.31599 10.8333 8.09583 10.8333C7.87568 10.8333 7.66447 10.9205 7.50833 11.0757L5.425 13.159C5.34689 13.2365 5.2849 13.3286 5.24259 13.4302C5.20028 13.5317 5.1785 13.6407 5.1785 13.7507C5.1785 13.8607 5.20028 13.9696 5.24259 14.0711C5.2849 14.1727 5.34689 14.2649 5.425 14.3423L7.50833 16.4257C7.66525 16.5815 7.87764 16.6686 8.09878 16.6678C8.31992 16.667 8.53169 16.5784 8.6875 16.4215C8.84331 16.2646 8.93041 16.0522 8.92963 15.831C8.92885 15.6099 8.84025 15.3981 8.68333 15.2423L8.025 14.584H15.8333C16.0543 14.584 16.2663 14.4962 16.4226 14.3399C16.5789 14.1836 16.6667 13.9717 16.6667 13.7507V2.91733C16.6667 2.69631 16.5789 2.48435 16.4226 2.32807C16.2663 2.17179 16.0543 2.08399 15.8333 2.08399Z" fill="var(--fill-0, #012754)"/>
</svg>
